<?xml version="1.0" encoding="UTF-8"?><svg id="a" xmlns="http://www.w3.org/2000/svg" viewBox="0 0 1000 1000"><path d="M178.12,754.4c0,8.11-2.15,14.06-6.44,17.84-4.3,3.78-10.57,5.67-18.81,5.67h-9.23v-12.84h6.62c4.41,0,7.52-.83,9.32-2.5,1.8-1.67,2.7-4.5,2.7-8.5v-110.89h15.85v111.23ZM162.7,625.33c-2.03-2-3.05-4.45-3.05-7.34s1.02-5.34,3.05-7.34c2.03-2,4.56-3,7.58-3s5.54,1,7.58,3c2.03,2,3.05,4.45,3.05,7.34s-1.02,5.34-3.05,7.34c-2.03,2-4.56,3-7.58,3s-5.55-1-7.58-3Z" fill="#231f20"/><path d="M235.07,646.84c6.27-3.44,13.41-5.17,21.42-5.17,8.59,0,16.31,1.95,23.17,5.84,6.85,3.89,12.25,9.37,16.2,16.42,3.95,7.06,5.92,15.26,5.92,24.6s-1.98,17.46-5.92,24.68c-3.95,7.23-9.38,12.84-16.29,16.84-6.91,4-14.6,6-23.08,6s-15.48-1.72-21.69-5.17c-6.21-3.44-10.89-7.84-14.02-13.17v16.84h-15.85v-123.4h15.85v49.03c3.25-5.45,8.01-9.89,14.28-13.34ZM281.23,670.52c-2.9-5.11-6.82-9-11.76-11.67-4.94-2.67-10.36-4-16.29-4s-11.18,1.36-16.11,4.09c-4.94,2.73-8.88,6.67-11.84,11.84-2.96,5.17-4.44,11.15-4.44,17.93s1.48,12.92,4.44,18.09,6.91,9.12,11.84,11.84c4.93,2.73,10.3,4.08,16.11,4.08s11.35-1.36,16.29-4.08c4.93-2.72,8.85-6.67,11.76-11.84,2.9-5.17,4.35-11.26,4.35-18.26s-1.45-12.89-4.35-18.01Z" fill="#231f20"/><path d="M320.07,732.56c-2.09-2-3.13-4.45-3.13-7.34s1.04-5.34,3.13-7.34c2.09-2,4.64-3,7.66-3s5.37,1,7.4,3c2.03,2,3.05,4.45,3.05,7.34s-1.02,5.34-3.05,7.34c-2.03,2-4.5,3-7.4,3s-5.57-1-7.66-3Z" fill="#231f20"/><path d="M387.04,645.84c5.17-2.89,11.47-4.33,18.9-4.33v15.67h-4.18c-17.77,0-26.65,9.23-26.65,27.68v49.69h-15.85v-91.38h15.85v14.84c2.79-5.22,6.76-9.28,11.93-12.17Z" fill="#231f20"/><path d="M510.8,694.54h-76.29c.58,9,3.8,16.04,9.67,21.09,5.86,5.06,12.98,7.59,21.34,7.59,6.85,0,12.57-1.53,17.16-4.59,4.59-3.06,7.81-7.14,9.67-12.26h17.07c-2.56,8.78-7.66,15.92-15.33,21.43s-17.19,8.25-28.57,8.25c-9.06,0-17.16-1.94-24.3-5.84-7.14-3.89-12.75-9.42-16.81-16.59-4.07-7.17-6.1-15.48-6.1-24.93s1.97-17.73,5.92-24.85c3.95-7.11,9.49-12.59,16.63-16.42,7.14-3.84,15.36-5.75,24.65-5.75s17.07,1.89,24.04,5.67c6.97,3.78,12.34,8.98,16.11,15.59,3.77,6.62,5.66,14.09,5.66,22.43,0,2.89-.17,5.95-.52,9.17ZM490.94,667.27c-2.67-4.17-6.3-7.34-10.89-9.51-4.59-2.17-9.67-3.25-15.24-3.25-8.01,0-14.83,2.45-20.47,7.34-5.63,4.89-8.86,11.67-9.67,20.34h60.27c0-5.78-1.34-10.76-4.01-14.92Z" fill="#231f20"/><path d="M562.1,646.93c6.21-3.5,13.44-5.25,21.69-5.25s16.17,1.95,23.08,5.84c6.91,3.89,12.34,9.37,16.29,16.42,3.95,7.06,5.92,15.26,5.92,24.6s-1.98,17.46-5.92,24.68c-3.95,7.23-9.38,12.84-16.29,16.84-6.91,4-14.6,6-23.08,6s-15.3-1.75-21.51-5.25c-6.21-3.5-10.95-7.86-14.2-13.09v60.2h-15.85v-134.74h15.85v16.84c3.14-5.22,7.81-9.59,14.02-13.09ZM608.52,670.52c-2.9-5.11-6.82-9-11.76-11.67-4.94-2.67-10.36-4-16.29-4s-11.18,1.36-16.11,4.09c-4.94,2.73-8.88,6.67-11.84,11.84-2.96,5.17-4.44,11.15-4.44,17.93s1.48,12.92,4.44,18.09c2.96,5.17,6.91,9.12,11.84,11.84,4.93,2.73,10.3,4.08,16.11,4.08s11.35-1.36,16.29-4.08c4.93-2.72,8.85-6.67,11.76-11.84,2.9-5.17,4.35-11.26,4.35-18.26s-1.45-12.89-4.35-18.01Z" fill="#231f20"/><path d="M649.97,663.94c3.95-7.06,9.38-12.53,16.29-16.42,6.91-3.89,14.6-5.84,23.08-5.84s15.62,1.73,21.77,5.17c6.15,3.45,10.74,7.78,13.76,13.01v-16.68h16.02v91.38h-16.02v-17.01c-3.14,5.34-7.81,9.75-14.02,13.26-6.21,3.5-13.44,5.25-21.69,5.25s-16.14-2-22.99-6c-6.85-4-12.25-9.62-16.2-16.84-3.95-7.22-5.92-15.45-5.92-24.68s1.97-17.54,5.92-24.6ZM720.52,670.69c-2.9-5.11-6.82-9.03-11.76-11.76-4.94-2.72-10.36-4.09-16.29-4.09s-11.32,1.33-16.2,4-8.77,6.56-11.67,11.67c-2.9,5.12-4.35,11.12-4.35,18.01s1.45,13.09,4.35,18.26c2.9,5.17,6.79,9.12,11.67,11.84,4.88,2.73,10.28,4.08,16.2,4.08s11.35-1.36,16.29-4.08c4.93-2.72,8.85-6.67,11.76-11.84,2.9-5.17,4.35-11.2,4.35-18.09s-1.45-12.89-4.35-18.01Z" fill="#231f20"/><path d="M768.24,625.33c-2.09-2-3.13-4.45-3.13-7.34s1.04-5.34,3.13-7.34c2.09-2,4.64-3,7.66-3s5.37,1,7.4,3c2.03,2,3.05,4.45,3.05,7.34s-1.02,5.34-3.05,7.34c-2.03,2-4.5,3-7.4,3s-5.57-1-7.66-3ZM783.57,643.18v91.38h-15.85v-91.38h15.85Z" fill="#231f20"/><path d="M838.35,645.84c5.17-2.89,11.47-4.33,18.9-4.33v15.67h-4.18c-17.77,0-26.65,9.23-26.65,27.68v49.69h-15.85v-91.38h15.85v14.84c2.79-5.22,6.76-9.28,11.93-12.17Z" fill="#231f20"/><path d="M149.81,831.7c-2.49-1.04-4.43-2.49-5.85-4.33-1.41-1.85-2.14-3.98-2.19-6.41h6.63c.23,2.08,1.15,3.84,2.77,5.26,1.62,1.42,3.98,2.13,7.08,2.13s5.3-.69,7.01-2.07c1.71-1.38,2.56-3.16,2.56-5.32,0-1.7-.5-3.08-1.5-4.14-1-1.06-2.26-1.87-3.76-2.42-1.5-.55-3.53-1.15-6.09-1.79-3.15-.76-5.67-1.53-7.56-2.29-1.89-.76-3.51-1.96-4.86-3.6-1.35-1.64-2.02-3.83-2.02-6.6,0-2.42.66-4.57,1.98-6.44,1.32-1.87,3.18-3.32,5.57-4.33s5.14-1.53,8.24-1.53c4.47,0,8.13,1.04,10.98,3.12,2.85,2.08,4.46,4.84,4.82,8.29h-6.84c-.23-1.7-1.19-3.2-2.87-4.49-1.69-1.3-3.92-1.94-6.7-1.94-2.6,0-4.72.63-6.36,1.88-1.64,1.25-2.46,3.01-2.46,5.26,0,1.62.49,2.93,1.47,3.95.98,1.02,2.19,1.8,3.62,2.33s3.45,1.14,6.05,1.82c3.15.81,5.68,1.6,7.59,2.39,1.92.79,3.56,2,4.92,3.63,1.37,1.64,2.05,3.86,2.05,6.66,0,2.17-.62,4.21-1.85,6.12-1.23,1.91-3.06,3.46-5.47,4.65-2.42,1.19-5.27,1.79-8.55,1.79s-5.96-.52-8.45-1.56Z" fill="#de5c5e"/><path d="M190.1,831.15c-2.85-1.49-5.08-3.6-6.7-6.34-1.62-2.74-2.43-5.92-2.43-9.53s.83-6.73,2.5-9.47c1.66-2.74,3.93-4.84,6.81-6.31,2.87-1.47,6.09-2.2,9.64-2.2s6.77.73,9.64,2.2c2.87,1.47,5.14,3.56,6.8,6.28,1.66,2.72,2.5,5.89,2.5,9.5s-.86,6.79-2.57,9.53-4.02,4.86-6.94,6.34c-2.92,1.49-6.16,2.23-9.71,2.23s-6.69-.74-9.54-2.23ZM205.93,826.82c1.96-.98,3.54-2.44,4.75-4.4,1.21-1.95,1.81-4.33,1.81-7.14s-.59-5.18-1.78-7.14-2.74-3.41-4.65-4.37-3.99-1.43-6.22-1.43-4.37.48-6.26,1.43c-1.89.96-3.41,2.41-4.55,4.37-1.14,1.96-1.71,4.33-1.71,7.14s.56,5.25,1.68,7.2c1.12,1.96,2.61,3.41,4.48,4.37,1.87.96,3.92,1.43,6.16,1.43s4.33-.49,6.29-1.47Z" fill="#de5c5e"/><path d="M242.32,802.66h-7.87v30.15h-6.22v-30.15h-4.86v-4.78h4.86v-2.49c0-3.91,1.08-6.77,3.25-8.58,2.17-1.81,5.64-2.71,10.43-2.71v4.84c-2.74,0-4.66.5-5.78,1.5-1.12,1-1.68,2.65-1.68,4.94v2.49h7.87v4.78Z" fill="#de5c5e"/><path d="M257.16,802.66v20.59c0,1.7.39,2.9,1.16,3.6.77.7,2.12,1.05,4.04,1.05h4.58v4.91h-5.61c-3.47,0-6.06-.74-7.8-2.23-1.73-1.49-2.6-3.93-2.6-7.33v-20.59h-4.86v-4.78h4.86v-8.8h6.22v8.8h9.78v4.78h-9.78Z" fill="#de5c5e"/><path d="M324.39,797.88l-11.7,34.93h-6.43l-9.03-27.73-9.03,27.73h-6.43l-11.76-34.93h6.36l8.62,29.32,9.3-29.32h6.36l9.1,29.39,8.48-29.39h6.16Z" fill="#de5c5e"/><path d="M330.54,805.81c1.55-2.7,3.68-4.79,6.39-6.28,2.71-1.49,5.73-2.23,9.06-2.23s6.13.66,8.55,1.98c2.42,1.32,4.22,2.97,5.4,4.97v-6.38h6.29v34.93h-6.29v-6.5c-1.23,2.04-3.07,3.73-5.51,5.07-2.44,1.34-5.28,2.01-8.51,2.01s-6.34-.77-9.03-2.3c-2.69-1.53-4.81-3.67-6.36-6.44-1.55-2.76-2.33-5.91-2.33-9.43s.78-6.7,2.33-9.4ZM358.24,808.4c-1.14-1.96-2.68-3.45-4.62-4.5-1.94-1.04-4.07-1.56-6.4-1.56s-4.45.51-6.36,1.53c-1.92,1.02-3.44,2.51-4.58,4.46-1.14,1.96-1.71,4.25-1.71,6.89s.57,5,1.71,6.98c1.14,1.98,2.67,3.49,4.58,4.53,1.92,1.04,4.04,1.56,6.36,1.56s4.46-.52,6.4-1.56c1.94-1.04,3.48-2.55,4.62-4.53,1.14-1.98,1.71-4.28,1.71-6.92s-.57-4.93-1.71-6.88Z" fill="#de5c5e"/><path d="M387.69,798.9c2.03-1.1,4.5-1.66,7.42-1.66v5.99h-1.64c-6.98,0-10.46,3.53-10.46,10.58v19h-6.22v-34.93h6.22v5.67c1.09-2,2.66-3.55,4.68-4.65Z" fill="#de5c5e"/><path d="M436.28,817.51h-29.96c.23,3.44,1.49,6.13,3.8,8.06,2.3,1.93,5.09,2.9,8.38,2.9,2.69,0,4.93-.58,6.74-1.75,1.8-1.17,3.07-2.73,3.8-4.69h6.7c-1,3.36-3.01,6.09-6.02,8.19-3.01,2.1-6.75,3.16-11.22,3.16-3.56,0-6.74-.74-9.54-2.23-2.8-1.49-5-3.6-6.6-6.34-1.6-2.74-2.39-5.92-2.39-9.53s.78-6.78,2.33-9.5c1.55-2.72,3.73-4.81,6.53-6.28,2.8-1.47,6.03-2.2,9.68-2.2s6.7.72,9.44,2.17c2.74,1.45,4.84,3.43,6.33,5.96,1.48,2.53,2.22,5.39,2.22,8.57,0,1.11-.07,2.27-.21,3.51ZM428.48,807.09c-1.05-1.59-2.47-2.8-4.27-3.63-1.8-.83-3.8-1.24-5.98-1.24-3.15,0-5.83.93-8.04,2.8-2.21,1.87-3.48,4.46-3.8,7.78h23.66c0-2.21-.52-4.11-1.57-5.71Z" fill="#de5c5e"/><path d="M499.54,832.81l-6.22-5.87c-2.33,2.25-4.81,3.92-7.46,5-2.64,1.08-5.63,1.62-8.96,1.62s-6.19-.55-8.72-1.66c-2.53-1.1-4.49-2.68-5.88-4.72-1.39-2.04-2.09-4.42-2.09-7.14,0-3.1.95-5.83,2.84-8.19,1.89-2.36,4.68-4.22,8.38-5.58-1.46-1.61-2.51-3.1-3.15-4.46-.64-1.36-.96-2.85-.96-4.46,0-1.87.51-3.56,1.54-5.07,1.03-1.51,2.5-2.69,4.41-3.54,1.92-.85,4.13-1.27,6.63-1.27s4.6.45,6.43,1.34c1.82.89,3.19,2.14,4.1,3.73s1.32,3.37,1.23,5.32h-6.22c.04-1.74-.48-3.11-1.57-4.11-1.09-1-2.51-1.5-4.24-1.5-1.82,0-3.29.48-4.41,1.43-1.12.96-1.67,2.18-1.67,3.67,0,1.28.38,2.51,1.13,3.7.75,1.19,2.02,2.66,3.8,4.4l14.23,13.32,1.23-1.78,4.65-7.27h6.7l-5.61,9.05c-.78,1.28-1.69,2.61-2.74,4.02l10.74,10.01h-8.14ZM483.57,827.27c1.98-.89,3.86-2.27,5.64-4.14l-14.02-13.13c-5.84,2.08-8.75,5.38-8.75,9.88,0,2.51.97,4.59,2.91,6.25,1.94,1.66,4.46,2.49,7.56,2.49,2.46,0,4.69-.45,6.67-1.34Z" fill="#de5c5e"/><path d="M568.49,788.38v44.43h-6.22v-20.14h-24.28v20.14h-6.22v-44.43h6.22v19.51h24.28v-19.51h6.22Z" fill="#de5c5e"/><path d="M579.08,805.81c1.55-2.7,3.68-4.79,6.39-6.28,2.71-1.49,5.73-2.23,9.06-2.23s6.13.66,8.55,1.98,4.22,2.97,5.4,4.97v-6.38h6.29v34.93h-6.29v-6.5c-1.23,2.04-3.07,3.73-5.51,5.07-2.44,1.34-5.28,2.01-8.51,2.01s-6.34-.77-9.03-2.3c-2.69-1.53-4.81-3.67-6.36-6.44-1.55-2.76-2.33-5.91-2.33-9.43s.77-6.7,2.33-9.4ZM606.78,808.4c-1.14-1.96-2.68-3.45-4.62-4.5-1.94-1.04-4.07-1.56-6.4-1.56s-4.45.51-6.36,1.53c-1.92,1.02-3.44,2.51-4.58,4.46-1.14,1.96-1.71,4.25-1.71,6.89s.57,5,1.71,6.98c1.14,1.98,2.67,3.49,4.58,4.53,1.92,1.04,4.04,1.56,6.36,1.56s4.46-.52,6.4-1.56c1.94-1.04,3.48-2.55,4.62-4.53s1.71-4.28,1.71-6.92-.57-4.93-1.71-6.88Z" fill="#de5c5e"/><path d="M636.23,798.9c2.03-1.1,4.5-1.66,7.42-1.66v5.99h-1.64c-6.98,0-10.46,3.53-10.46,10.58v19h-6.22v-34.93h6.22v5.67c1.09-2,2.66-3.55,4.68-4.65Z" fill="#de5c5e"/><path d="M650.83,805.81c1.55-2.7,3.68-4.79,6.39-6.28,2.71-1.49,5.76-2.23,9.13-2.23,2.92,0,5.63.63,8.14,1.88,2.51,1.25,4.42,2.9,5.75,4.94v-18.49h6.29v47.17h-6.29v-6.57c-1.23,2.08-3.06,3.79-5.47,5.13-2.42,1.34-5.24,2.01-8.48,2.01s-6.35-.77-9.06-2.3c-2.71-1.53-4.85-3.67-6.39-6.44-1.55-2.76-2.33-5.91-2.33-9.43s.77-6.7,2.33-9.4ZM678.53,808.4c-1.14-1.96-2.68-3.45-4.62-4.5-1.94-1.04-4.07-1.56-6.4-1.56s-4.45.51-6.36,1.53c-1.92,1.02-3.44,2.51-4.58,4.46-1.14,1.96-1.71,4.25-1.71,6.89s.57,5,1.71,6.98c1.14,1.98,2.67,3.49,4.58,4.53,1.92,1.04,4.04,1.56,6.36,1.56s4.46-.52,6.4-1.56c1.94-1.04,3.48-2.55,4.62-4.53s1.71-4.28,1.71-6.92-.57-4.93-1.71-6.88Z" fill="#de5c5e"/><path d="M746.99,797.88l-11.7,34.93h-6.43l-9.03-27.73-9.03,27.73h-6.43l-11.76-34.93h6.36l8.62,29.32,9.3-29.32h6.36l9.1,29.39,8.48-29.39h6.16Z" fill="#de5c5e"/><path d="M753.15,805.81c1.55-2.7,3.68-4.79,6.39-6.28,2.71-1.49,5.73-2.23,9.06-2.23s6.13.66,8.55,1.98,4.22,2.97,5.4,4.97v-6.38h6.29v34.93h-6.29v-6.5c-1.23,2.04-3.07,3.73-5.51,5.07-2.44,1.34-5.28,2.01-8.51,2.01s-6.34-.77-9.03-2.3c-2.69-1.53-4.81-3.67-6.36-6.44-1.55-2.76-2.33-5.91-2.33-9.43s.77-6.7,2.33-9.4ZM780.85,808.4c-1.14-1.96-2.68-3.45-4.62-4.5-1.94-1.04-4.07-1.56-6.4-1.56s-4.45.51-6.36,1.53c-1.92,1.02-3.44,2.51-4.58,4.46-1.14,1.96-1.71,4.25-1.71,6.89s.57,5,1.71,6.98c1.14,1.98,2.67,3.49,4.58,4.53,1.92,1.04,4.04,1.56,6.36,1.56s4.46-.52,6.4-1.56c1.94-1.04,3.48-2.55,4.62-4.53s1.71-4.28,1.71-6.92-.57-4.93-1.71-6.88Z" fill="#de5c5e"/><path d="M810.29,798.9c2.03-1.1,4.5-1.66,7.42-1.66v5.99h-1.64c-6.98,0-10.46,3.53-10.46,10.58v19h-6.22v-34.93h6.22v5.67c1.09-2,2.66-3.55,4.68-4.65Z" fill="#de5c5e"/><path d="M858.88,817.51h-29.96c.23,3.44,1.49,6.13,3.8,8.06,2.3,1.93,5.1,2.9,8.38,2.9,2.69,0,4.94-.58,6.74-1.75,1.8-1.17,3.07-2.73,3.8-4.69h6.7c-1,3.36-3.01,6.09-6.02,8.19-3.01,2.1-6.75,3.16-11.22,3.16-3.56,0-6.74-.74-9.54-2.23-2.8-1.49-5-3.6-6.6-6.34-1.6-2.74-2.39-5.92-2.39-9.53s.77-6.78,2.33-9.5c1.55-2.72,3.73-4.81,6.53-6.28,2.8-1.47,6.03-2.2,9.68-2.2s6.7.72,9.44,2.17c2.74,1.45,4.84,3.43,6.33,5.96,1.48,2.53,2.22,5.39,2.22,8.57,0,1.11-.07,2.27-.21,3.51ZM851.08,807.09c-1.05-1.59-2.47-2.8-4.27-3.63-1.8-.83-3.8-1.24-5.98-1.24-3.15,0-5.83.93-8.04,2.8-2.21,1.87-3.48,4.46-3.8,7.78h23.66c0-2.21-.52-4.11-1.57-5.71Z" fill="#de5c5e"/><path d="M272.99,375.5h334.01c9.11,0,16.5-7.39,16.5-16.5v-159.01c0-9.07-7.42-16.49-16.49-16.49h-334.02c-9.11,0-16.49,7.38-16.49,16.49v159.02c0,9.11,7.38,16.49,16.49,16.49ZM405.35,358.5l119.24-159h75.66l-119.24,159h-75.66ZM605.46,358.5h-111.09l112.12-149.49v148.45c0,.57-.47,1.04-1.04,1.04ZM270.93,199.5c0-1.27,1.04,0,1.04,0h239.89l-119.25,159h-122.06c-.57,0-1.04-.47-1.04-1.04v-157.96h1.43Z" fill="#de5c5e"/><path d="M781.88,444.5h-29.38v-34.46c0-28.47-23.08-51.54-51.54-51.54h-27.46l-1-186.26c0-23.05-18.69-41.74-41.74-41.74H245.24c-23.05,0-41.74,18.69-41.74,41.74v210.29c0,9.95,3.51,19.1,9.36,26.29-5.85,7.18-9.36,16.32-9.36,26.28v122.67c0,23.05,18.69,41.74,41.74,41.74h385.53c23.05,0,41.74-18.69,41.74-41.74v-123.17c0-10.08-3.59-19.33-9.58-26.6,5.98-7.27,9.58-16.53,9.58-26.6v-9.9h29.91c19.93,0,36.09,16.16,36.09,36.09v36.91h-29.51c-9.11,0-16.49,7.38-16.49,16.49v116.02c0,9.11,7.38,16.49,16.49,16.49h73.02c9.11,0,16.49-7.38,16.49-16.49v-115.78c0-9.22-7.44-16.73-16.62-16.73ZM247.33,163.5h384.34c5.98,0,10.83,4.85,10.83,10.83v209.34c0,5.96-4.87,10.83-10.83,10.83H247.33c-5.96,0-10.83-4.87-10.83-10.83v-209.34c0-5.96,4.87-10.83,10.83-10.83ZM631.67,570.5H247.33c-5.96,0-10.83-4.87-10.83-10.83v-123.34c0-5.96,4.87-10.83,10.83-10.83h384.34c5.96,0,10.83,4.87,10.83,10.83v123.34c0,5.96-4.87,10.83-10.83,10.83ZM782.5,462.54v28.96h-30v-30h28.96c.57,0,1.04.47,1.04,1.04ZM710.53,461.5h28.97v30h-30v-28.97c0-.57.46-1.03,1.03-1.03ZM781.46,576.5h-70.92c-.57,0-1.04-.47-1.04-1.04v-71.96h73v71.96c0,.57-.47,1.04-1.04,1.04Z" fill="#de5c5e"/><circle cx="606.5" cy="520.5" r="17" fill="#de5c5e"/><rect x="256.5" y="501.5" width="247" height="34" rx="12" ry="12" fill="#de5c5e"/></svg>